<?xml version="1.0" standalone="no"?><!DOCTYPE svg PUBLIC "-//W3C//DTD SVG 1.1//EN" "http://www.w3.org/Graphics/SVG/1.1/DTD/svg11.dtd"><svg t="1724233518410" class="icon" viewBox="0 0 1024 1024" version="1.1" xmlns="http://www.w3.org/2000/svg" p-id="7011" data-spm-anchor-id="a313x.search_index.0.i3.2bf43a81tmIsPd" xmlns:xlink="http://www.w3.org/1999/xlink" width="200" height="200"><path d="M439.8208 635.136c23.9488 0 43.3536 21.0432 43.3536 47.0016 0 25.9456-19.4048 46.9888-43.3536 46.9888-23.936 0-43.3536-21.0432-43.3536-46.9888 0-25.9584 19.4176-46.9888 43.3536-46.9888z m-94.592 0c17.3056 0 32.256 11.008 39.2064 26.9056l-21.4016 7.232c-3.1616-9.6896-9.9456-15.4112-17.8048-15.4112-10.88 0-19.712 10.9696-19.712 28.2752 0 17.2928 8.832 27.9424 19.712 27.9424 8.0896 0 15.0272-5.8752 18.0736-15.9872l22.7072 4.032c-6.0416 18.0864-22.016 31.0016-40.7808 31.0016-23.936 0-43.3536-21.0432-43.3536-46.9888 0-25.9584 19.4048-46.9888 43.3536-46.9888z m197.6448 0c14.6304 0 26.5728 11.392 27.3536 25.728l0.0384 1.4848v5.6064c0 9.5872-6.272 17.7024-14.976 20.5312l0.4608 1.0752 24.8704 39.5648h-24.8704l-27.6864-39.5648h-10.304v39.5648h-18.4192v-93.9776h43.5328z m118.1824 0v19.3792h-52.6976v16.2432h46.8352v18.7264h-46.8352v18.1376h52.6976v21.504h-71.3344v-93.9776h71.3344z m-221.2352 21.4016c-12.4544 0-22.5408 11.456-22.5408 25.6 0 14.1312 10.0864 25.6 22.5408 25.6 12.4544 0 22.5536-11.4688 22.5536-25.6 0-14.144-10.0992-25.6-22.5536-25.6z m101.2992-4.3008h-23.424v22.8224h23.424c6.3488 0 11.4944-5.12 11.4944-11.4176a11.4432 11.4432 0 0 0-11.4944-11.4048z m153.856-17.088V640h-7.3216v24.8832h-7.04V640h-7.168v-4.864h21.5296z m9.3824 0l7.6032 17.6128 7.488-17.6128h6.2464v29.7472h-5.248v-19.0464l-6.912 17.792h-2.5344l-7.6032-17.792v17.792h-5.1584v-28.4928h6.1184z" fill="#d5cc20" p-id="7012" data-spm-anchor-id="a313x.search_index.0.i5.2bf43a81tmIsPd" class=""></path><path d="M347.5072 128v41.5872h92.4544V128h29.7472v41.5872h92.4544V128h29.7472v41.5872h92.4672V128h29.7344v41.5872h84.6848c21.76 0 39.4112 17.536 39.4112 39.168v99.9424H896v29.5552h-57.8048v91.8656H896v29.5424h-57.8048v91.8656H896v29.5552h-57.8048v91.8656H896v29.5424h-57.8048v94.976a39.296 39.296 0 0 1-39.3984 39.168H714.112V883.2h-29.7344v-46.5664h-92.4672V883.2H562.176v-46.5664h-92.48V883.2h-29.7216v-46.5664h-92.4672V883.2h-29.7472v-46.5664h-102.6048a39.296 39.296 0 0 1-39.4112-39.168v-94.976H128v-29.5424h47.744v-91.8656H128v-29.5424h47.744V459.648H128v-29.5424h47.744v-91.8656H128v-29.5424h47.744v-99.968a39.296 39.296 0 0 1 39.424-39.1552h102.592V128h29.7472z m451.2896 80.7424H714.112v0.9088h-29.7344v-0.896h-92.4672v0.896H562.176v-0.896h-92.48v0.896h-29.7216v-0.896h-92.4672v0.896h-29.7472v-0.896h-102.6048v588.7104h583.6416V208.7424z" fill="#13227a" p-id="7013" data-spm-anchor-id="a313x.search_index.0.i0.2bf43a81tmIsPd" class=""></path><path d="M418.4832 401.1008v72.9216H395.392v-91.648l47.68 0.0384c20.224 0 27.136 14.3616 27.136 27.392v64.2176h-23.04v-64.1024c0-5.4656-2.7776-8.8192-9.6-8.8192h-19.0848z m157.056-1.088c-7.9104 0-14.0032 4.0704-16.576 9.6-1.4336 3.1232-2.1888 6.528-2.2016 9.9584h35.5328c-0.4352-9.9712-4.928-19.5584-16.768-19.5584z m-18.7776 35.3536c0 11.8272 7.3472 20.608 20.48 20.608 10.176 0 15.2576-2.8288 21.1712-8.7808l14.2592 13.7216c-9.1136 9.0368-18.7392 14.528-35.5968 14.528-22.0928 0-43.264-12.0832-43.264-47.3856 0-30.1824 18.4576-47.232 42.7136-47.232 24.6144 0 38.848 19.968 38.848 46.1568v8.32h-58.624v0.064z m-42.4704 38.5024c-18.7904 0-26.8032-13.1456-26.8032-26.1632v-90.2656h23.0656v24.96h17.3696v18.7264h-17.3952v45.1328c0 5.3376 2.5344 8.2688 8.0384 8.2688h9.3568v19.328H514.304z m-139.456-104.1536h-23.2448v-22.1824h23.2448v22.1824z m0.064 105.216c-17.408-1.6512-23.3344-12.2368-23.3344-24.5376v-67.9808h23.296v92.5952l0.0384-0.064z m277.1712-1.9456c-17.3952-1.6896-23.2704-12.2624-23.2704-24.512v-104.0896h23.2704v128.64-0.0384zM733.44 359.424c-21.0688-103.296-220.7616-109.8496-349.4272-31.168v8.6912c128.5248-66.3552 310.8608-65.9712 327.4624 29.1456 5.5424 31.5008-12.096 64.2816-43.5968 83.1616v24.6528c37.9136-13.952 76.8512-59.1744 65.5616-114.4832zM499.5072 540.16c-88.7808 8.2304-181.3376-4.7232-194.2784-74.4192-6.3104-34.3552 9.3056-70.8096 29.9136-93.4144v-12.0832c-37.1968 32.768-57.3824 74.2784-45.7472 123.3024 14.8224 62.912 94.2592 98.5344 215.4624 86.6816 47.9872-4.6848 110.7584-20.1984 154.4064-44.2624v-34.1632c-39.616 23.7184-105.1648 43.3024-159.7568 48.3584z" fill="#1296db" p-id="7014" data-spm-anchor-id="a313x.search_index.0.i1.2bf43a81tmIsPd" class=""></path><path d="M678.976 351.2704c0-1.1264-0.6912-1.4848-2.176-1.4848h-1.4464v3.2l1.4464 0.0384c1.4848 0 2.176-0.4736 2.176-1.5872v-0.1664z m2.24 7.9488h-1.7024c-0.1664 0-0.3328-0.064-0.384-0.2176l-2.3424-4.0064c-0.064-0.0896-0.256-0.192-0.3584-0.192h-1.0496v3.9936c0 0.2176-0.1664 0.4608-0.4352 0.4608h-1.536c-0.2048 0-0.384-0.256-0.384-0.4608v-10.0224c0-0.5504 0.2176-0.8576 0.704-0.9088 0.9344-0.0896 1.8944-0.1152 2.8416-0.1152 2.8544 0 4.608 0.8704 4.608 3.5328v0.192c0 1.6896-0.8576 2.5344-2.1248 2.9696l2.432 4.1216c0 0.1152 0.0896 0.2304 0.0896 0.3328 0.0384 0.128-0.0768 0.32-0.3584 0.32v0.0384-0.0384z m-4.0832-13.3248a7.68 7.68 0 0 0-7.6288 7.7184 7.68 7.68 0 0 0 15.3472 0.0256 7.7824 7.7824 0 0 0-7.7184-7.744z m0 17.0496a9.2928 9.2928 0 0 1-9.2672-9.2928c0-5.1456 4.1344-9.3184 9.2544-9.3184h0.0128c4.8896 0.3072 8.704 4.3904 8.704 9.3056a9.3056 9.3056 0 0 1-8.704 9.3056z" fill="#1296db" p-id="7015" data-spm-anchor-id="a313x.search_index.0.i4.2bf43a81tmIsPd" class=""></path></svg>