<?xml version="1.0" standalone="no"?><!DOCTYPE svg PUBLIC "-//W3C//DTD SVG 1.1//EN" "http://www.w3.org/Graphics/SVG/1.1/DTD/svg11.dtd"><svg t="1724240028391" class="icon" viewBox="0 0 1024 1024" version="1.1" xmlns="http://www.w3.org/2000/svg" p-id="19140" xmlns:xlink="http://www.w3.org/1999/xlink" width="200" height="200"><path d="M400 261.226667L704 762.773333H122.026667l277.973333-501.546666z" fill="#60C2A4" p-id="19141"></path><path d="M352 762.773333m0 0l96 0q0 0 0 0l0 125.397334q0 0 0 0l-96 0q0 0 0 0l0-125.397334q0 0 0 0Z" fill="#60C2A4" p-id="19142"></path><path d="M437.461333 131.072L704 543.36H122.026667L364.885333 132.522667a42.666667 42.666667 0 0 1 72.576-1.450667" fill="#60C2A4" p-id="19143"></path><path d="M645.589333 257.28l223.061334 348.757333H369.813333l202.986667-347.306666c16.085333-27.52 55.594667-28.309333 72.789333-1.450667" fill="#A7E1D2" p-id="19144"></path><path d="M608 323.925333l260.650667 438.848H369.813333L608 323.925333z" fill="#A7E1D2" p-id="19145"></path><path d="M576 762.773333m0 0l96 0q0 0 0 0l0 125.397334q0 0 0 0l-96 0q0 0 0 0l0-125.397334q0 0 0 0Z" fill="#A7E1D2" p-id="19146"></path><path d="M96 899.477333a42.666667 42.666667 0 0 1 42.666667-42.666666h746.666666a42.666667 42.666667 0 0 1 42.666667 42.666666v51.370667h-832z" fill="#60C2A4" p-id="19147"></path></svg>