<?xml version="1.0" standalone="no"?><!DOCTYPE svg PUBLIC "-//W3C//DTD SVG 1.1//EN" "http://www.w3.org/Graphics/SVG/1.1/DTD/svg11.dtd"><svg t="1724239666896" class="icon" viewBox="0 0 1024 1024" version="1.1" xmlns="http://www.w3.org/2000/svg" p-id="11816" xmlns:xlink="http://www.w3.org/1999/xlink" width="200" height="200"><path d="M160.25 340.28v25.262c0 8.314 31.822 23.022 47.326 28.784 16.308 6.23 24.624 12.312 24.624 28.776v32.938H8.36v-32.938c0-16.464 8.15-22.546 24.624-28.776 15.504-5.762 47.326-20.47 47.326-28.784V340.28l2.56-2.234c12.148 13.592 26.38 22.062 37.412 22.062s25.262-8.47 37.41-22.062l2.558 2.234z" fill="#AC92EC" p-id="11817"></path><path d="M24.348 439.09c0-16.464 8.15-22.546 24.624-28.776 15.504-5.762 47.324-20.47 47.324-28.784v-25.264s-1.28-4.63-13.426-18.222l-2.56 2.234v25.262c0 8.314-31.822 23.022-47.326 28.784-16.472 6.23-24.624 12.312-24.624 28.776v32.938h15.988v-16.948z" fill="#FFFFFF" opacity=".3" p-id="11818"></path><path d="M216.21 439.09c0-16.464-8.15-22.546-24.624-28.776-15.504-5.762-47.326-20.47-47.326-28.784v-25.264s1.28-4.63 13.428-18.222l2.56 2.234v25.262c0 8.314 31.822 23.022 47.326 28.784 16.472 6.23 24.624 12.312 24.624 28.776v32.938h-15.988v-16.948z" opacity=".2" p-id="11819"></path><path d="M551.97 148.416v25.262c0 8.314 31.82 23.022 47.326 28.784 16.316 6.23 24.624 12.312 24.624 28.776v32.938H400.08v-32.938c0-16.464 8.148-22.546 24.622-28.776 15.506-5.762 47.326-20.47 47.326-28.784V148.416l2.56-2.232c12.148 13.592 26.38 22.062 37.412 22.062s25.264-8.47 37.41-22.062l2.56 2.232z" fill="#5D9CEC" p-id="11820"></path><path d="M903.72 360.108c11.04 0 25.262-8.47 37.41-22.062l2.56 2.234v25.262c0 8.314 31.82 23.022 47.326 28.784 16.316 6.23 24.624 12.312 24.624 28.776v32.938H791.798v-32.938c0-16.464 8.152-22.546 24.626-28.776 15.504-5.762 47.324-20.47 47.324-28.784V340.28l2.56-2.234c12.15 13.592 26.374 22.062 37.412 22.062z" fill="#AC92EC" p-id="11821"></path><path d="M903.72 200.222c35.332 0 63.954 29.416 63.954 74.026 0 24.466-11.836 47.646-26.542 63.798-12.148 13.592-26.372 22.062-37.41 22.062s-25.264-8.47-37.412-22.062c-14.708-16.152-26.542-39.332-26.542-63.798-0.002-44.61 28.616-74.026 63.952-74.026zM512 8.36c35.334 0 63.954 29.416 63.954 74.026 0 24.466-11.834 47.646-26.542 63.798-12.146 13.592-26.378 22.062-37.41 22.062s-25.264-8.47-37.412-22.062c-14.708-16.154-26.542-39.332-26.542-63.798C448.044 37.776 476.666 8.36 512 8.36zM120.28 200.222c35.334 0 63.954 29.416 63.954 74.026 0 24.466-11.834 47.646-26.542 63.798-12.148 13.592-26.378 22.062-37.41 22.062s-25.264-8.47-37.412-22.062c-14.708-16.152-26.544-39.332-26.544-63.798-0.002-44.61 28.62-74.026 63.954-74.026z" fill="#EAC6BB" p-id="11822"></path><path d="M114.846 338.046c-14.708-16.152-26.544-39.332-26.544-63.798 0-37.598 20.422-64.158 47.966-71.66-5.136-1.398-10.43-2.366-15.988-2.366-35.334 0-63.956 29.416-63.956 74.026 0 24.466 11.836 47.646 26.544 63.798 12.148 13.592 26.38 22.062 37.412 22.062 4.848 0 10.352-1.882 15.988-4.872-7.19-3.808-14.616-9.57-21.422-17.19z" fill="#FFFFFF" opacity=".5" p-id="11823"></path><path d="M125.712 338.046c14.708-16.152 26.542-39.332 26.542-63.798 0-37.598-20.422-64.158-47.964-71.66 5.136-1.398 10.43-2.366 15.988-2.366 35.334 0 63.954 29.416 63.954 74.026 0 24.466-11.834 47.646-26.542 63.798-12.148 13.592-26.378 22.062-37.41 22.062-4.848 0-10.352-1.882-15.988-4.872 7.188-3.808 14.612-9.57 21.42-17.19z" opacity=".2" p-id="11824"></path><path d="M506.566 146.184c-14.708-16.154-26.544-39.332-26.544-63.798 0-37.598 20.424-64.158 47.966-71.66-5.136-1.398-10.43-2.366-15.988-2.366-35.334 0-63.956 29.416-63.956 74.026 0 24.466 11.836 47.646 26.542 63.798 12.148 13.592 26.38 22.062 37.412 22.062 4.848 0 10.352-1.882 15.988-4.872-7.188-3.81-14.612-9.572-21.42-17.19z" fill="#FFFFFF" opacity=".5" p-id="11825"></path><path d="M517.434 146.184c14.708-16.154 26.542-39.332 26.542-63.798 0-37.598-20.424-64.158-47.966-71.66 5.138-1.396 10.432-2.366 15.99-2.366 35.334 0 63.954 29.416 63.954 74.026 0 24.466-11.834 47.646-26.542 63.798-12.146 13.592-26.378 22.062-37.41 22.062-4.85 0-10.354-1.882-15.99-4.872 7.19-3.81 14.614-9.572 21.422-17.19z" opacity=".2" p-id="11826"></path><path d="M898.288 338.046c-14.708-16.152-26.544-39.332-26.544-63.798 0-37.598 20.424-64.158 47.966-71.66-5.136-1.398-10.43-2.366-15.988-2.366-35.336 0-63.956 29.416-63.956 74.026 0 24.466 11.834 47.646 26.542 63.798 12.148 13.592 26.388 22.062 37.412 22.062 4.84 0 10.352-1.882 15.988-4.872-7.182-3.808-14.614-9.57-21.42-17.19z" fill="#FFFFFF" opacity=".5" p-id="11827"></path><path d="M909.154 338.046c14.708-16.152 26.542-39.332 26.542-63.798 0-37.598-20.424-64.158-47.964-71.66 5.136-1.398 10.43-2.366 15.988-2.366 35.332 0 63.954 29.416 63.954 74.026 0 24.466-11.836 47.646-26.542 63.798-12.148 13.592-26.386 22.062-37.41 22.062-4.842 0-10.354-1.882-15.988-4.872 7.18-3.808 14.612-9.57 21.42-17.19z" opacity=".2" p-id="11828"></path><path d="M416.076 247.228c0-16.464 8.15-22.546 24.624-28.778 15.504-5.762 47.326-20.468 47.326-28.784V164.404s-1.282-4.628-13.43-18.22l-2.56 2.232v25.262c0 8.314-31.82 23.022-47.326 28.784-16.472 6.23-24.622 12.312-24.622 28.776v32.938h15.988v-16.948z" fill="#FFFFFF" opacity=".3" p-id="11829"></path><path d="M607.932 247.228c0-16.464-8.152-22.546-24.608-28.778-15.522-5.762-47.342-20.468-47.342-28.784V164.404s1.282-4.628 13.428-18.22l2.56 2.232v25.262c0 8.314 31.82 23.022 47.342 28.784 16.458 6.23 24.608 12.312 24.608 28.776v32.938h-15.988v-16.948z" opacity=".2" p-id="11830"></path><path d="M807.788 439.09c0-16.464 8.152-22.546 24.64-28.776 15.488-5.762 47.308-20.47 47.308-28.784v-25.264s-1.28-4.63-13.428-18.222l-2.56 2.234v25.262c0 8.314-31.82 23.022-47.308 28.784-16.488 6.23-24.64 12.312-24.64 28.776v32.938h15.988v-16.948z" fill="#FFFFFF" opacity=".3" p-id="11831"></path><path d="M999.65 439.09c0-16.464-8.148-22.546-24.606-28.776-15.522-5.762-47.342-20.47-47.342-28.784v-25.264s1.28-4.63 13.428-18.222l2.56 2.234v25.262c0 8.314 31.82 23.022 47.342 28.784 16.458 6.23 24.608 12.312 24.608 28.776v32.938h-15.99v-16.948z" opacity=".2" p-id="11832"></path><path d="M456.04 983.664s15.988 31.976 55.96 31.976c39.97 0 55.958-31.976 55.958-31.976H456.04z" fill="#656D78" p-id="11833"></path><path d="M488.018 983.664H456.04s15.988 31.976 55.96 31.976c5.892 0 11.11-0.844 15.988-2.032-28.198-6.836-39.97-29.944-39.97-29.944z" fill="#FFFFFF" opacity=".3" p-id="11834"></path><path d="M535.982 983.664h31.976S551.97 1015.64 512 1015.64c-5.902 0-11.118-0.844-15.99-2.032 28.198-6.836 39.972-29.944 39.972-29.944z" opacity=".2" p-id="11835"></path><path d="M631.914 951.686l-31.978 31.978h-175.874l-31.978-31.978v-95.932h239.83z" fill="#AAB2BD" p-id="11836"></path><path d="M424.062 855.754h-31.978v95.932l31.978 31.978h31.978l-31.978-31.978z" fill="#FFFFFF" opacity=".4" p-id="11837"></path><path d="M599.936 855.754h31.978v95.932l-31.978 31.978h-31.978l31.978-31.978z" opacity=".3" p-id="11838"></path><path d="M759.822 607.932c0-136.872-110.952-247.824-247.822-247.824S264.176 471.06 264.176 607.932c0 93.356 51.666 174.562 127.908 216.83v30.992h239.862v-31.008c76.226-42.268 127.876-123.474 127.876-216.814z" fill="#FFCE54" p-id="11839"></path><path d="M727.846 607.932c0-131.476-102.458-238.736-231.836-247.02 5.308-0.336 10.588-0.804 15.99-0.804 136.872 0 247.822 110.952 247.822 247.824 0 93.356-51.682 174.562-127.908 216.83 0 0 95.932-80.928 95.932-216.83z" opacity=".2" p-id="11840"></path><path d="M296.154 607.932c0-131.476 102.458-238.736 231.834-247.02-5.308-0.336-10.586-0.804-15.988-0.804-136.872 0-247.824 110.952-247.824 247.824 0 93.356 51.682 174.562 127.908 216.83 0 0-95.93-80.928-95.93-216.83z" fill="#FFFFFF" opacity=".5" p-id="11841"></path><path d="M551.97 759.822L512 727.846l-39.972 31.976v79.944h79.942z" fill="#FFFFFF" opacity=".6" p-id="11842"></path><path d="M440.05 615.926m-31.976 0a31.976 31.976 0 1 0 63.952 0 31.976 31.976 0 1 0-63.952 0Z" fill="#FFFFFF" opacity=".6" p-id="11843"></path><path d="M615.926 615.926c0 17.66-14.334 31.976-31.978 31.976-17.674 0-31.976-14.316-31.976-31.976s14.302-31.976 31.976-31.976c17.644 0 31.978 14.316 31.978 31.976z" fill="#FFFFFF" opacity=".6" p-id="11844"></path><path d="M392.084 839.766h239.83v15.988H392.084z" opacity=".2" p-id="11845"></path><path d="M903.72 368.102c-13.32 0-29.528-9.244-43.376-24.732-18.144-19.922-28.574-45.14-28.574-69.122 0-47.53 30.26-82.02 71.95-82.02 41.688 0 71.948 34.49 71.948 82.02 0 23.982-10.43 49.2-28.62 69.176-13.802 15.436-30.008 24.678-43.328 24.678z m0-159.886c-32.43 0-55.96 27.77-55.96 66.032 0 20.056 8.916 41.346 24.466 58.418 10.57 11.834 22.922 19.448 31.494 19.448 8.57 0 20.922-7.612 31.446-19.392 15.598-17.128 24.514-38.418 24.514-58.474 0-38.262-23.53-66.032-55.96-66.032z" fill="#3A3847" p-id="11846"></path><path d="M1015.64 464.034H791.798a7.99 7.99 0 0 1-7.994-7.994v-32.938c0-23.062 14.724-30.556 29.792-36.254 18.442-6.848 38.894-17.8 42.252-22.54a8 8 0 0 1 7.9-6.76 7.99 7.99 0 0 1 7.994 7.994c0 15.122-36.738 30.408-52.542 36.278-15.582 5.894-19.406 10.08-19.406 21.282v24.942h207.852v-24.942c0-11.148-3.826-15.334-19.486-21.306-15.724-5.848-52.462-21.132-52.462-36.254a7.988 7.988 0 0 1 7.994-7.994 7.998 7.998 0 0 1 7.9 6.76c3.358 4.738 23.81 15.692 42.204 22.524 15.13 5.776 29.84 13.31 29.84 36.27v32.938a7.994 7.994 0 0 1-7.996 7.994z" fill="#3A3847" p-id="11847"></path><path d="M863.748 373.536a7.99 7.99 0 0 1-7.994-7.994V340.28c0-4.42 3.576-7.996 7.994-7.996s7.994 3.576 7.994 7.996v25.262a7.99 7.99 0 0 1-7.994 7.994zM943.692 373.536a7.988 7.988 0 0 1-7.994-7.994V340.28a7.99 7.99 0 0 1 7.994-7.996 7.99 7.99 0 0 1 7.994 7.996v25.262a7.99 7.99 0 0 1-7.994 7.994zM120.28 368.102c-13.318 0-29.534-9.244-43.376-24.732-18.136-19.922-28.574-45.14-28.574-69.122 0-47.53 30.26-82.02 71.95-82.02 41.688 0 71.95 34.49 71.95 82.02 0 23.982-10.438 49.2-28.628 69.176-13.79 15.436-30.004 24.678-43.322 24.678z m0-159.886c-32.422 0-55.96 27.77-55.96 66.032 0 20.056 8.916 41.346 24.458 58.418 10.58 11.834 22.93 19.448 31.502 19.448s20.922-7.612 31.446-19.392c15.6-17.128 24.516-38.418 24.516-58.474-0.002-38.262-23.54-66.032-55.962-66.032z" fill="#3A3847" p-id="11848"></path><path d="M232.2 464.034H8.36a7.988 7.988 0 0 1-7.994-7.994v-32.938c0-23.062 14.714-30.556 29.792-36.254 18.432-6.848 38.886-17.8 42.25-22.54a8 8 0 0 1 7.902-6.76 7.99 7.99 0 0 1 7.994 7.994c0 15.122-36.74 30.408-52.532 36.278-15.598 5.894-19.416 10.08-19.416 21.282v24.942h207.852v-24.942c0-11.148-3.826-15.326-19.478-21.306-15.73-5.848-52.47-21.132-52.47-36.254a7.99 7.99 0 0 1 7.994-7.994 7.998 7.998 0 0 1 7.9 6.76c3.366 4.738 23.82 15.692 42.212 22.524 15.13 5.776 29.83 13.318 29.83 36.27v32.938a7.994 7.994 0 0 1-7.996 7.994z" fill="#3A3847" p-id="11849"></path><path d="M80.308 373.536a7.99 7.99 0 0 1-7.994-7.994V340.28c0-4.42 3.576-7.996 7.994-7.996s7.994 3.576 7.994 7.996v25.262a7.99 7.99 0 0 1-7.994 7.994zM160.25 373.536a7.99 7.99 0 0 1-7.994-7.994V340.28a7.99 7.99 0 0 1 7.994-7.996 7.99 7.99 0 0 1 7.994 7.996v25.262a7.988 7.988 0 0 1-7.994 7.994zM512 176.24c-13.318 0-29.534-9.244-43.376-24.732-18.134-19.924-28.572-45.14-28.572-69.124 0-47.53 30.26-82.02 71.95-82.02s71.948 34.49 71.948 82.02c0 23.982-10.43 49.2-28.62 69.178C541.526 166.996 525.318 176.24 512 176.24z m0-159.886c-32.424 0-55.96 27.77-55.96 66.032 0 20.056 8.916 41.346 24.458 58.418 10.578 11.834 22.93 19.448 31.502 19.448s20.922-7.612 31.446-19.392c15.6-17.128 24.514-38.418 24.514-58.474-0.002-38.262-23.53-66.032-55.96-66.032z" fill="#3A3847" p-id="11850"></path><path d="M623.92 272.17H400.08a7.99 7.99 0 0 1-7.996-7.994V231.24c0-23.062 14.716-30.556 29.792-36.254 18.432-6.848 38.886-17.8 42.25-22.54a8 8 0 0 1 7.9-6.76 7.988 7.988 0 0 1 7.994 7.994c0 15.122-36.738 30.408-52.532 36.278-15.6 5.894-19.416 10.08-19.416 21.282v24.944h207.852V231.24c0-11.148-3.826-15.334-19.486-21.306-15.722-5.846-52.462-21.132-52.462-36.254a7.99 7.99 0 0 1 7.994-7.994 7.998 7.998 0 0 1 7.9 6.76c3.358 4.738 23.81 15.692 42.206 22.524 15.128 5.778 29.838 13.31 29.838 36.27v32.938a7.988 7.988 0 0 1-7.994 7.992z" fill="#3A3847" p-id="11851"></path><path d="M472.028 181.674a7.99 7.99 0 0 1-7.994-7.996V148.416a7.99 7.99 0 0 1 7.994-7.994 7.988 7.988 0 0 1 7.994 7.994v25.262a7.99 7.99 0 0 1-7.994 7.996zM551.97 181.674a7.99 7.99 0 0 1-7.994-7.996V148.416c0-4.418 3.576-7.994 7.994-7.994s7.994 3.576 7.994 7.994v25.262a7.99 7.99 0 0 1-7.994 7.996zM392.076 833.05a7.85 7.85 0 0 1-3.856-0.998c-81.442-44.982-132.04-130.86-132.04-224.122 0-141.056 114.762-255.818 255.818-255.818 4.418 0 7.994 3.576 7.994 7.994s-3.576 7.994-7.994 7.994c-132.242 0-239.83 107.586-239.83 239.83 0 87.438 47.428 167.958 123.78 210.13a7.99 7.99 0 0 1 3.13 10.868 8 8 0 0 1-7.002 4.122z" fill="#3A3847" p-id="11852"></path><path d="M631.914 833.05a7.996 7.996 0 0 1-3.872-14.99c76.352-42.172 123.788-122.694 123.788-210.13 0-132.242-107.58-239.83-239.828-239.83-4.42 0-7.994-3.576-7.994-7.994s3.574-7.994 7.994-7.994c141.054 0 255.816 114.762 255.816 255.818 0 93.262-50.588 179.154-132.03 224.122a7.916 7.916 0 0 1-3.874 0.998zM392.084 959.68a7.988 7.988 0 0 1-7.992-7.994V825.06a7.988 7.988 0 0 1 7.992-7.996 7.99 7.99 0 0 1 7.996 7.996v126.626a7.99 7.99 0 0 1-7.996 7.994z" fill="#3A3847" p-id="11853"></path><path d="M631.914 959.68a7.988 7.988 0 0 1-7.994-7.994v-126.47a7.99 7.99 0 0 1 7.994-7.996 7.99 7.99 0 0 1 7.994 7.996v126.47a7.988 7.988 0 0 1-7.994 7.994z" fill="#3A3847" p-id="11854"></path><path d="M631.914 863.75H392.084a7.988 7.988 0 0 1-7.992-7.996 7.988 7.988 0 0 1 7.992-7.994h239.83a7.99 7.99 0 0 1 7.994 7.994 7.99 7.99 0 0 1-7.994 7.996zM599.936 991.658h-175.874a7.99 7.99 0 0 1-5.652-2.342l-31.978-31.978a7.992 7.992 0 0 1 0-11.304 7.988 7.988 0 0 1 11.304 0l29.636 29.634h169.254l29.634-29.634c3.124-3.124 8.182-3.124 11.304 0s3.124 8.182 0 11.304l-31.978 31.978a7.98 7.98 0 0 1-5.65 2.342zM376.088 911.714a8 8 0 0 1-7.97-7.528 7.986 7.986 0 0 1 7.502-8.446l271.798-15.988c4.732-0.234 8.198 3.106 8.462 7.51a7.986 7.986 0 0 1-7.494 8.448l-271.814 15.988c-0.156 0.016-0.32 0.016-0.484 0.016zM376.088 943.692a8 8 0 0 1-7.97-7.526 7.986 7.986 0 0 1 7.502-8.448l271.798-15.988c4.732-0.204 8.198 3.108 8.462 7.51a7.984 7.984 0 0 1-7.494 8.448l-271.814 15.988c-0.156 0.016-0.32 0.016-0.484 0.016z" fill="#3A3847" p-id="11855"></path><path d="M512 1023.634c-44.398 0-62.37-34.912-63.112-36.396a7.99 7.99 0 0 1 3.574-10.726c3.966-1.936 8.728-0.376 10.71 3.544 0.626 1.216 14.592 27.59 48.826 27.59 34.63 0 48.668-27.292 48.808-27.558a8.032 8.032 0 0 1 10.726-3.576 8 8 0 0 1 3.576 10.726c-0.746 1.484-18.704 36.396-63.108 36.396zM472.028 831.772a7.99 7.99 0 0 1-7.994-7.994v-63.956a7.99 7.99 0 0 1 7.994-7.994 7.988 7.988 0 0 1 7.994 7.994v63.956a7.988 7.988 0 0 1-7.994 7.994zM551.97 831.772a7.99 7.99 0 0 1-7.994-7.994v-63.956c0-4.418 3.576-7.994 7.994-7.994s7.994 3.576 7.994 7.994v63.956a7.99 7.99 0 0 1-7.994 7.994z" fill="#3A3847" p-id="11856"></path><path d="M472.036 767.816a8.008 8.008 0 0 1-6.252-2.996 8.004 8.004 0 0 1 1.248-11.242l39.97-31.978a8.006 8.006 0 0 1 11.242 1.25 8.004 8.004 0 0 1-1.248 11.242l-39.97 31.976a7.92 7.92 0 0 1-4.99 1.748z" fill="#3A3847" p-id="11857"></path><path d="M551.97 767.816c-1.764 0-3.514-0.56-4.996-1.748l-39.972-31.976a8.008 8.008 0 0 1-1.248-11.242 8.022 8.022 0 0 1 11.242-1.25l39.97 31.978a8.006 8.006 0 0 1 1.25 11.242 7.992 7.992 0 0 1-6.246 2.996zM472.028 735.84a7.988 7.988 0 0 1-7.994-7.994v-111.92a7.99 7.99 0 0 1 7.994-7.994 7.988 7.988 0 0 1 7.994 7.994v111.92a7.988 7.988 0 0 1-7.994 7.994z" fill="#3A3847" p-id="11858"></path><path d="M472.028 623.92a7.99 7.99 0 0 1-7.994-7.994c0-13.224-10.758-23.982-23.982-23.982s-23.982 10.758-23.982 23.982a7.99 7.99 0 0 1-7.994 7.994 7.988 7.988 0 0 1-7.994-7.994c0-22.046 17.932-39.972 39.97-39.972s39.97 17.926 39.97 39.972a7.988 7.988 0 0 1-7.994 7.994z" fill="#3A3847" p-id="11859"></path><path d="M440.05 655.896c-22.04 0-39.97-17.924-39.97-39.97a7.988 7.988 0 0 1 7.994-7.994 7.99 7.99 0 0 1 7.994 7.994c0 13.224 10.758 23.982 23.982 23.982a7.988 7.988 0 0 1 7.994 7.994 7.988 7.988 0 0 1-7.994 7.994zM551.97 735.84a7.988 7.988 0 0 1-7.994-7.994v-111.92c0-4.418 3.576-7.994 7.994-7.994s7.994 3.576 7.994 7.994v111.92a7.988 7.988 0 0 1-7.994 7.994z" fill="#3A3847" p-id="11860"></path><path d="M615.926 623.92a7.988 7.988 0 0 1-7.994-7.994c0-13.224-10.758-23.982-23.984-23.982-13.224 0-23.982 10.758-23.982 23.982 0 4.418-3.576 7.994-7.994 7.994s-7.994-3.576-7.994-7.994c0-22.046 17.924-39.972 39.97-39.972s39.972 17.926 39.972 39.972a7.99 7.99 0 0 1-7.994 7.994z" fill="#3A3847" p-id="11861"></path><path d="M583.948 655.896a7.988 7.988 0 0 1-7.994-7.994 7.99 7.99 0 0 1 7.994-7.994c13.226 0 23.984-10.758 23.984-23.982a7.988 7.988 0 0 1 7.994-7.994 7.99 7.99 0 0 1 7.994 7.994c0 22.046-17.926 39.97-39.972 39.97zM519.994 655.896h-15.988a7.99 7.99 0 0 1-7.996-7.994 7.99 7.99 0 0 1 7.996-7.994h15.988a7.99 7.99 0 0 1 7.994 7.994 7.988 7.988 0 0 1-7.994 7.994zM512 336.126a7.988 7.988 0 0 1-7.994-7.994v-31.976a7.988 7.988 0 0 1 7.994-7.994 7.99 7.99 0 0 1 7.994 7.994v31.976a7.99 7.99 0 0 1-7.994 7.994zM903.72 607.932a7.99 7.99 0 0 1-7.996-7.994v-111.92a7.99 7.99 0 0 1 7.996-7.994 7.988 7.988 0 0 1 7.992 7.994v111.92a7.988 7.988 0 0 1-7.992 7.994z" fill="#3A3847" p-id="11862"></path><path d="M903.72 607.932h-111.922c-4.418 0-7.994-3.576-7.994-7.994s3.576-7.994 7.994-7.994h111.922c4.418 0 7.992 3.576 7.992 7.994s-3.574 7.994-7.992 7.994zM120.28 607.932a7.99 7.99 0 0 1-7.994-7.994v-111.92c0-4.42 3.576-7.994 7.994-7.994s7.994 3.574 7.994 7.994v111.92a7.99 7.99 0 0 1-7.994 7.994z" fill="#3A3847" p-id="11863"></path><path d="M232.2 607.932H120.28c-4.418 0-7.994-3.576-7.994-7.994s3.576-7.994 7.994-7.994h111.92c4.418 0 7.994 3.576 7.994 7.994s-3.576 7.994-7.994 7.994z" fill="#3A3847" p-id="11864"></path></svg>